<svg width="60" height="19" viewBox="0 0 60 19" fill="none" xmlns="http://www.w3.org/2000/svg">
<path d="M26.208 4.86C26.048 5.02 25.856 5.1 25.632 5.1C25.408 5.1 25.212 5.02 25.044 4.86C24.884 4.692 24.804 4.496 24.804 4.272C24.804 4.048 24.884 3.856 25.044 3.696C25.212 3.528 25.408 3.444 25.632 3.444C25.856 3.444 26.048 3.528 26.208 3.696C26.376 3.856 26.46 4.048 26.46 4.272C26.46 4.496 26.376 4.692 26.208 4.86ZM24.984 12.24V6H26.28V12.24C26.28 13.904 25.46 14.676 23.82 14.556V13.308C24.22 13.348 24.512 13.284 24.696 13.116C24.888 12.948 24.984 12.656 24.984 12.24ZM31.8352 9.216V6L33.1312 6V12H31.8352V11.232C31.4352 11.848 30.8152 12.156 29.9752 12.156C29.2792 12.156 28.7192 11.936 28.2952 11.496C27.8792 11.048 27.6712 10.444 27.6712 9.684V6H28.9672V9.552C28.9672 10 29.0872 10.344 29.3272 10.584C29.5672 10.824 29.8952 10.944 30.3112 10.944C30.7832 10.944 31.1552 10.8 31.4272 10.512C31.6992 10.216 31.8352 9.784 31.8352 9.216ZM38.0426 5.844C38.8586 5.844 39.5626 6.152 40.1546 6.768C40.7386 7.376 41.0306 8.12 41.0306 9C41.0306 9.888 40.7386 10.636 40.1546 11.244C39.5706 11.852 38.8666 12.156 38.0426 12.156C37.1386 12.156 36.4386 11.82 35.9426 11.148V14.4H34.6466V6H35.9426V6.864C36.4306 6.184 37.1306 5.844 38.0426 5.844ZM36.4826 10.38C36.8426 10.74 37.2946 10.92 37.8386 10.92C38.3826 10.92 38.8346 10.74 39.1946 10.38C39.5546 10.012 39.7346 9.552 39.7346 9C39.7346 8.448 39.5546 7.992 39.1946 7.632C38.8346 7.264 38.3826 7.08 37.8386 7.08C37.2946 7.08 36.8426 7.264 36.4826 7.632C36.1226 7.992 35.9426 8.448 35.9426 9C35.9426 9.544 36.1226 10.004 36.4826 10.38ZM43.4292 4.86C43.2692 5.02 43.0772 5.1 42.8532 5.1C42.6292 5.1 42.4332 5.02 42.2652 4.86C42.1052 4.692 42.0252 4.496 42.0252 4.272C42.0252 4.048 42.1052 3.856 42.2652 3.696C42.4252 3.528 42.6212 3.444 42.8532 3.444C43.0852 3.444 43.2812 3.528 43.4412 3.696C43.6012 3.856 43.6812 4.048 43.6812 4.272C43.6812 4.496 43.5972 4.692 43.4292 4.86ZM43.5012 12H42.2052V6L43.5012 6V12ZM48.354 6V7.248H46.866V10.128C46.866 10.376 46.922 10.556 47.034 10.668C47.146 10.772 47.31 10.832 47.526 10.848C47.75 10.856 48.026 10.852 48.354 10.836V12C47.362 12.12 46.65 12.036 46.218 11.748C45.786 11.452 45.57 10.912 45.57 10.128V7.248H44.466V6H45.57V4.704L46.866 4.32V6H48.354ZM55.0793 9.552L50.3033 9.552C50.3993 10 50.6153 10.348 50.9513 10.596C51.2953 10.844 51.7193 10.968 52.2233 10.968C52.9033 10.968 53.4193 10.72 53.7713 10.224L54.8393 10.848C54.2553 11.72 53.3793 12.156 52.2113 12.156C51.2433 12.156 50.4553 11.86 49.8473 11.268C49.2473 10.668 48.9473 9.912 48.9473 9C48.9473 8.112 49.2433 7.364 49.8353 6.756C50.4193 6.148 51.1793 5.844 52.1153 5.844C52.9873 5.844 53.7073 6.152 54.2753 6.768C54.8433 7.384 55.1273 8.132 55.1273 9.012C55.1273 9.172 55.1113 9.352 55.0793 9.552ZM50.2913 8.496H53.8193C53.7313 8.024 53.5313 7.66 53.2193 7.404C52.9153 7.148 52.5433 7.02 52.1033 7.02C51.6233 7.02 51.2233 7.152 50.9033 7.416C50.5833 7.68 50.3793 8.04 50.2913 8.496ZM57.5637 6V7.008C57.8917 6.264 58.5077 5.892 59.4117 5.892V7.296C58.9237 7.264 58.4917 7.384 58.1157 7.656C57.7477 7.92 57.5637 8.36 57.5637 8.976V12H56.2677V6H57.5637Z" fill="#65B4BB"/>
<path d="M24 14.4L59.6157 14.4V15L24 15V14.4Z" fill="#65B4BB"/>
<path d="M1.81934 15.1929C2.53839 16.1931 3.46074 17.03 4.5259 17.6487C5.59105 18.2674 6.77496 18.6539 8 18.783C7.36973 17.8346 6.45361 16.962 5.3099 16.2977C4.16619 15.6334 2.95497 15.2705 1.81934 15.1929Z" fill="url(#paint0_linear_4435_8671)"/>
<path d="M7.38216 13.1063C4.94404 11.6898 2.30517 11.3288 0.416992 11.9665C0.599273 12.569 0.839672 13.1523 1.1348 13.7082C2.77531 13.6703 4.56648 14.1158 6.23316 15.0838C7.89986 16.0519 9.1746 17.3879 9.95465 18.8321C10.5841 18.8128 11.2103 18.7326 11.8243 18.5928C11.4426 16.6369 9.81964 14.5231 7.38216 13.1063Z" fill="url(#paint1_linear_4435_8671)"/>
<path d="M19.0001 7.35682C18.6901 6.09596 18.1292 4.91049 17.3509 3.87121C16.5726 2.83191 15.5929 1.96012 14.4702 1.30786C13.3475 0.655612 12.1049 0.236286 10.8166 0.0749221C9.52821 -0.0864423 8.22055 0.0134646 6.97168 0.368678C9.05807 0.624011 11.3739 1.40724 13.6451 2.72667C15.9163 4.04611 17.7455 5.66971 19.0001 7.35682Z" fill="url(#paint2_linear_4435_8671)"/>
<path d="M15.9639 11.981C14.896 10.2073 13.0665 8.50907 10.8129 7.19984C8.55925 5.89062 6.17826 5.14282 4.11038 5.09335C2.29113 5.05025 0.925742 5.57912 0.365286 6.54396C0.362094 6.5497 0.357625 6.55513 0.354114 6.56087C0.303686 6.74184 0.260278 6.92312 0.220703 7.10505C1.0033 6.79611 1.91005 6.62406 2.9183 6.60491C5.16043 6.56279 7.66973 7.27996 9.98527 8.62524C12.3008 9.97053 14.1683 11.7958 15.2419 13.7638C15.7233 14.6505 16.0236 15.5234 16.1426 16.3574C16.2812 16.2335 16.4171 16.1055 16.5489 15.9725C16.5525 15.9664 16.5547 15.96 16.5582 15.9536C17.1187 14.9878 16.9019 13.5401 15.9639 11.981Z" fill="url(#paint3_linear_4435_8671)"/>
<path d="M9.0988 10.1508C5.64766 8.14583 1.83393 7.83176 0 9.231C0.00360223 9.66895 0.0370855 10.1062 0.100218 10.5396C0.639696 10.376 1.1957 10.2731 1.75797 10.2325C3.80733 10.0784 6.06672 10.6494 8.11705 11.8411C10.1674 13.0329 11.7836 14.7136 12.6652 16.5689C12.9088 17.0772 13.0947 17.6112 13.2192 18.1609C13.6271 18.0011 14.0237 17.8137 14.4062 17.6002C14.7133 15.3137 12.5509 12.1561 9.0988 10.1508Z" fill="url(#paint4_linear_4435_8671)"/>
<path d="M17.7392 9.0124C16.6591 7.24071 14.8137 5.53764 12.5441 4.2198C10.2745 2.90196 7.88432 2.14234 5.80973 2.08139C4.22826 2.03575 3.0033 2.41906 2.36816 3.14324C5.00542 2.69642 8.48402 3.44741 11.8557 5.40614C15.2274 7.36487 17.6039 10.0152 18.5212 12.5274C18.8355 11.6174 18.562 10.3634 17.7392 9.0124Z" fill="url(#paint5_linear_4435_8671)"/>
<defs>
<linearGradient id="paint0_linear_4435_8671" x1="14.0844" y1="4.03984" x2="2.75119" y2="18.8074" gradientUnits="userSpaceOnUse">
<stop stop-color="#F9A43A"/>
<stop offset="0.25" stop-color="#FFC45E"/>
<stop offset="0.53125" stop-color="#93EEEF"/>
<stop offset="0.760417" stop-color="#81F4FE"/>
<stop offset="1" stop-color="#3BDBFB"/>
</linearGradient>
<linearGradient id="paint1_linear_4435_8671" x1="15.3905" y1="2.47" x2="2.85053" y2="18.81" gradientUnits="userSpaceOnUse">
<stop stop-color="#F9A43A"/>
<stop offset="0.25" stop-color="#FFC45E"/>
<stop offset="0.53125" stop-color="#93EEEF"/>
<stop offset="0.760417" stop-color="#81F4FE"/>
<stop offset="1" stop-color="#3BDBFB"/>
</linearGradient>
<linearGradient id="paint2_linear_4435_8671" x1="15.3901" y1="2.47" x2="2.8501" y2="18.81" gradientUnits="userSpaceOnUse">
<stop stop-color="#F9A43A"/>
<stop offset="0.25" stop-color="#FFC45E"/>
<stop offset="0.53125" stop-color="#93EEEF"/>
<stop offset="0.760417" stop-color="#81F4FE"/>
<stop offset="1" stop-color="#3BDBFB"/>
</linearGradient>
<linearGradient id="paint3_linear_4435_8671" x1="15.3895" y1="2.47" x2="2.8495" y2="18.81" gradientUnits="userSpaceOnUse">
<stop stop-color="#F9A43A"/>
<stop offset="0.25" stop-color="#FFC45E"/>
<stop offset="0.53125" stop-color="#93EEEF"/>
<stop offset="0.760417" stop-color="#81F4FE"/>
<stop offset="1" stop-color="#3BDBFB"/>
</linearGradient>
<linearGradient id="paint4_linear_4435_8671" x1="15.39" y1="2.47" x2="2.85" y2="18.81" gradientUnits="userSpaceOnUse">
<stop stop-color="#F9A43A"/>
<stop offset="0.25" stop-color="#FFC45E"/>
<stop offset="0.53125" stop-color="#93EEEF"/>
<stop offset="0.760417" stop-color="#81F4FE"/>
<stop offset="1" stop-color="#3BDBFB"/>
</linearGradient>
<linearGradient id="paint5_linear_4435_8671" x1="15.3897" y1="2.47" x2="2.84968" y2="18.81" gradientUnits="userSpaceOnUse">
<stop stop-color="#F9A43A"/>
<stop offset="0.25" stop-color="#FFC45E"/>
<stop offset="0.53125" stop-color="#93EEEF"/>
<stop offset="0.760417" stop-color="#81F4FE"/>
<stop offset="1" stop-color="#3BDBFB"/>
</linearGradient>
</defs>
</svg>
