<svg width="55" height="25" viewBox="0 0 55 25" fill="none" xmlns="http://www.w3.org/2000/svg">
<g clip-path="url(#clip0_4392_8695)">
<path d="M24.8768 12.4384C24.8768 19.308 19.308 24.8768 12.4384 24.8768C5.56887 24.8768 0 19.308 0 12.4384C0 5.56887 5.56887 0 12.4384 0C19.308 0 24.8768 5.56887 24.8768 12.4384Z" fill="#F2C45B"/>
<path d="M6.56641 17.7992C6.67447 17.7258 6.77534 17.6158 6.82554 17.4598C6.88142 17.2862 6.84849 17.1336 6.82231 17.0491C6.82146 17.0463 6.82056 17.0434 6.81965 17.0406L6.8405 16.919C6.89796 16.9514 6.96421 16.9949 7.03975 17.048C7.05788 17.0608 7.08332 17.0789 7.10979 17.0978C7.14458 17.1226 7.18119 17.1487 7.20567 17.1658C7.24754 17.1949 7.30716 17.2356 7.37028 17.2691C9.04066 18.3073 10.422 18.7353 11.5193 18.6822C12.6536 18.6274 13.4492 18.0568 13.8595 17.224C14.2561 16.419 14.2699 15.4216 13.992 14.4975C13.7122 13.5675 13.1239 12.6637 12.247 12.0383C10.7693 10.9843 9.41528 9.38182 8.73063 8.01915C8.38292 7.32713 8.2446 6.76902 8.28109 6.40459C8.29809 6.23499 8.35006 6.13242 8.41222 6.06635C8.47444 6.00027 8.58772 5.9274 8.80606 5.89142C9.26852 5.81526 9.80345 5.64871 10.3462 5.47969C10.557 5.41406 10.7689 5.34807 10.9782 5.28685C11.7606 5.05807 12.5889 4.86587 13.4595 4.86751C15.1481 4.87068 17.1298 5.60381 19.2162 8.65359C21.8966 12.5713 20.4251 16.9492 17.3373 19.2491C15.7973 20.3961 13.8761 21.0049 11.9017 20.7734C10.124 20.565 8.26211 19.6704 6.56641 17.7992ZM6.87728 16.7853C6.87728 16.7853 6.87672 16.7864 6.87536 16.7885C6.87655 16.7862 6.87722 16.7851 6.87728 16.7853ZM6.70949 16.8618C6.70938 16.8616 6.71113 16.8618 6.71482 16.8627C6.71142 16.8623 6.70955 16.8619 6.70949 16.8618Z" fill="white" stroke="black" stroke-width="1.00867"/>
<path d="M8.10156 6.09119C8.10156 6.09119 12.8899 4.81618 13.9383 4.81618C14.9866 4.81618 19.1758 6.85042 20.3983 10.5679C22.1315 15.8379 17.4173 19.2934 16.8849 18.9546C21.9566 14.7612 13.6549 7.0101 9.5749 7.59287C9.0649 7.66574 9.34824 8.10287 9.34824 8.10287L9.2349 9.23621L8.3849 7.81953L8.10156 6.09119Z" fill="black"/>
<path d="M19.7002 8.98249C21.2123 11.6443 20.898 10.1203 20.5624 13.1632C21.1836 12.1583 22.1548 12.9107 22.556 13.295C22.6279 13.3638 22.7465 13.3211 22.7432 13.2216C22.7279 12.7703 22.5985 11.795 21.8514 10.7486C20.8268 9.31382 19.7002 8.98249 19.7002 8.98249Z" fill="black"/>
<path d="M20.5624 13.1632C20.6202 13.0203 20.7105 12.7974 20.7105 12.7974M20.5624 13.1632C20.898 10.1203 21.2123 11.6443 19.7002 8.98249C19.7002 8.98249 20.8268 9.31382 21.8514 10.7486C22.5985 11.795 22.7279 12.7703 22.7432 13.2216C22.7465 13.3211 22.6279 13.3638 22.556 13.295C22.1548 12.9107 21.1836 12.1583 20.5624 13.1632Z" stroke="black" stroke-width="0.056667"/>
<path d="M7.53554 12.7583C6.89758 13.8385 5.58858 13.7575 5.61364 15.0457C6.78277 17.6433 6.78974 17.457 6.78974 17.457C8.95539 16.2404 8.06543 13.554 7.74407 12.7639C7.70775 12.6746 7.58455 12.6753 7.53554 12.7583Z" fill="black"/>
<path d="M2.62605 15.1461C3.86997 15.3084 4.61201 14.227 5.61175 15.0399C6.93893 17.5604 6.7878 17.4512 6.7878 17.4512C4.49578 18.4087 2.92683 16.0535 2.50207 15.3139C2.45406 15.2303 2.53045 15.1336 2.62605 15.1461Z" fill="black"/>
<path d="M13.0596 13.5433C13.0596 13.5433 14.3062 14.8185 13.6546 15.0167C12.842 14.5165 11.3858 14.9052 10.6721 15.1459C10.4963 15.2052 10.3241 15.0493 10.3874 14.875C10.6301 14.2071 11.2294 12.9709 12.3796 12.8067C13.0596 12.6366 13.0596 13.5433 13.0596 13.5433Z" fill="black"/>
<path d="M13.8246 7.30959C13.6829 7.11126 13.3996 6.57292 14.2779 6.57292C15.1563 6.57292 16.4984 7.56748 16.7713 7.93537C16.6863 8.1596 16.1196 8.20975 15.8363 8.18793C15.553 8.16611 15.0713 8.11953 14.7029 7.93537C14.3346 7.7512 13.9663 7.50793 13.8246 7.30959Z" fill="white"/>
</g>
<path d="M35.832 13.244C35.224 13.852 34.476 14.156 33.588 14.156C32.7 14.156 31.952 13.852 31.344 13.244C30.728 12.628 30.42 11.88 30.42 11C30.42 10.12 30.728 9.372 31.344 8.756C31.952 8.148 32.7 7.844 33.588 7.844C34.476 7.844 35.224 8.148 35.832 8.756C36.448 9.372 36.756 10.12 36.756 11C36.756 11.88 36.448 12.628 35.832 13.244ZM31.716 11C31.716 11.544 31.896 11.996 32.256 12.356C32.616 12.716 33.06 12.896 33.588 12.896C34.116 12.896 34.56 12.716 34.92 12.356C35.28 11.996 35.46 11.544 35.46 11C35.46 10.456 35.28 10.004 34.92 9.644C34.56 9.284 34.116 9.104 33.588 9.104C33.06 9.104 32.616 9.284 32.256 9.644C31.896 10.004 31.716 10.456 31.716 11ZM39.2239 8V9.008C39.5519 8.264 40.1679 7.892 41.0719 7.892V9.296C40.5839 9.264 40.1519 9.384 39.7759 9.656C39.4079 9.92 39.2239 10.36 39.2239 10.976V14H37.9279V8L39.2239 8ZM44.5802 14.156C43.6762 14.156 42.9202 13.852 42.3122 13.244C41.7122 12.628 41.4122 11.88 41.4122 11C41.4122 10.104 41.7122 9.356 42.3122 8.756C42.9202 8.148 43.6762 7.844 44.5802 7.844C45.1642 7.844 45.6962 7.984 46.1762 8.264C46.6562 8.544 47.0162 8.92 47.2562 9.392L46.1402 10.04C46.0042 9.752 45.7962 9.528 45.5162 9.368C45.2442 9.2 44.9282 9.116 44.5682 9.116C44.0402 9.116 43.5962 9.296 43.2362 9.656C42.8842 10.024 42.7082 10.472 42.7082 11C42.7082 11.528 42.8842 11.976 43.2362 12.344C43.5962 12.704 44.0402 12.884 44.5682 12.884C44.9202 12.884 45.2362 12.804 45.5162 12.644C45.8042 12.476 46.0202 12.248 46.1642 11.96L47.2802 12.596C47.0242 13.076 46.6522 13.456 46.1642 13.736C45.6842 14.016 45.1562 14.156 44.5802 14.156ZM52.8752 8.852V8H54.1712V14H52.8752V13.136C52.3872 13.816 51.6872 14.156 50.7752 14.156C49.9512 14.156 49.2472 13.852 48.6632 13.244C48.0792 12.636 47.7872 11.888 47.7872 11C47.7872 10.112 48.0792 9.364 48.6632 8.756C49.2472 8.148 49.9512 7.844 50.7752 7.844C51.6872 7.844 52.3872 8.18 52.8752 8.852ZM49.6232 12.38C49.9832 12.74 50.4352 12.92 50.9792 12.92C51.5232 12.92 51.9752 12.74 52.3352 12.38C52.6952 12.012 52.8752 11.552 52.8752 11C52.8752 10.448 52.6952 9.992 52.3352 9.632C51.9752 9.264 51.5232 9.08 50.9792 9.08C50.4352 9.08 49.9832 9.264 49.6232 9.632C49.2632 9.992 49.0832 10.448 49.0832 11C49.0832 11.544 49.2632 12.004 49.6232 12.38Z" fill="#F2C45B"/>
<path d="M30 16.4L54.9272 16.4V17L30 17V16.4Z" fill="#F2C45B"/>
<defs>
<clipPath id="clip0_4392_8695">
<rect width="24.8768" height="24.8768" fill="white"/>
</clipPath>
</defs>
</svg>
