<svg width="71" height="23" viewBox="0 0 71 23" fill="none" xmlns="http://www.w3.org/2000/svg">
<path d="M28.052 8V9.008C28.38 8.264 28.996 7.892 29.9 7.892V9.296C29.412 9.264 28.98 9.384 28.604 9.656C28.236 9.92 28.052 10.36 28.052 10.976V14H26.756V8H28.052ZM35.3283 8.852V8H36.6243V14H35.3283V13.136C34.8403 13.816 34.1403 14.156 33.2283 14.156C32.4043 14.156 31.7003 13.852 31.1163 13.244C30.5323 12.636 30.2403 11.888 30.2403 11C30.2403 10.112 30.5323 9.364 31.1163 8.756C31.7003 8.148 32.4043 7.844 33.2283 7.844C34.1403 7.844 34.8403 8.18 35.3283 8.852ZM32.0763 12.38C32.4363 12.74 32.8883 12.92 33.4323 12.92C33.9763 12.92 34.4283 12.74 34.7883 12.38C35.1483 12.012 35.3283 11.552 35.3283 11C35.3283 10.448 35.1483 9.992 34.7883 9.632C34.4283 9.264 33.9763 9.08 33.4323 9.08C32.8883 9.08 32.4363 9.264 32.0763 9.632C31.7163 9.992 31.5363 10.448 31.5363 11C31.5363 11.544 31.7163 12.004 32.0763 12.38ZM40.6429 12.356L42.1789 8H43.5589L41.2549 14.192C40.6789 15.744 39.7029 16.48 38.3269 16.4V15.188C38.7269 15.212 39.0509 15.128 39.2989 14.936C39.5469 14.744 39.7549 14.436 39.9229 14.012L39.9829 13.892L37.4389 8H38.8549L40.6429 12.356ZM48.8869 8.852V5.6H50.1829V14H48.8869V13.136C48.3989 13.816 47.6989 14.156 46.7869 14.156C45.9629 14.156 45.2589 13.852 44.6749 13.244C44.0909 12.636 43.7989 11.888 43.7989 11C43.7989 10.112 44.0909 9.364 44.6749 8.756C45.2589 8.148 45.9629 7.844 46.7869 7.844C47.6989 7.844 48.3989 8.18 48.8869 8.852ZM45.6349 12.38C45.9949 12.74 46.4469 12.92 46.9909 12.92C47.5349 12.92 47.9869 12.74 48.3469 12.38C48.7069 12.012 48.8869 11.552 48.8869 11C48.8869 10.448 48.7069 9.992 48.3469 9.632C47.9869 9.264 47.5349 9.08 46.9909 9.08C46.4469 9.08 45.9949 9.264 45.6349 9.632C45.2749 9.992 45.0949 10.448 45.0949 11C45.0949 11.544 45.2749 12.004 45.6349 12.38ZM52.9175 6.86C52.7575 7.02 52.5655 7.1 52.3415 7.1C52.1175 7.1 51.9215 7.02 51.7535 6.86C51.5935 6.692 51.5135 6.496 51.5135 6.272C51.5135 6.048 51.5935 5.856 51.7535 5.696C51.9135 5.528 52.1095 5.444 52.3415 5.444C52.5735 5.444 52.7695 5.528 52.9295 5.696C53.0895 5.856 53.1695 6.048 53.1695 6.272C53.1695 6.496 53.0855 6.692 52.9175 6.86ZM52.9895 14H51.6935V8H52.9895V14ZM58.5383 11.216V8H59.8343V14H58.5383V13.232C58.1383 13.848 57.5183 14.156 56.6783 14.156C55.9823 14.156 55.4223 13.936 54.9983 13.496C54.5823 13.048 54.3743 12.444 54.3743 11.684V8H55.6703V11.552C55.6703 12 55.7903 12.344 56.0303 12.584C56.2703 12.824 56.5983 12.944 57.0143 12.944C57.4863 12.944 57.8583 12.8 58.1303 12.512C58.4023 12.216 58.5383 11.784 58.5383 11.216ZM67.9018 7.844C68.5818 7.844 69.1298 8.064 69.5458 8.504C69.9618 8.944 70.1698 9.536 70.1698 10.28V14H68.8738V10.364C68.8738 9.956 68.7698 9.636 68.5618 9.404C68.3538 9.172 68.0698 9.056 67.7098 9.056C67.3018 9.056 66.9818 9.192 66.7498 9.464C66.5178 9.728 66.4018 10.12 66.4018 10.64V14H65.1058V10.364C65.1058 9.948 65.0058 9.628 64.8058 9.404C64.6138 9.172 64.3378 9.056 63.9778 9.056C63.5778 9.056 63.2538 9.192 63.0058 9.464C62.7658 9.736 62.6458 10.128 62.6458 10.64V14H61.3498V8H62.6458V8.72C63.0298 8.136 63.6018 7.844 64.3618 7.844C65.1298 7.844 65.6978 8.16 66.0658 8.792C66.4578 8.16 67.0698 7.844 67.9018 7.844Z" fill="url(#paint0_linear_4435_8672)"/>
<path d="M26 16.4H70.8058V17H26V16.4Z" fill="url(#paint1_linear_4435_8672)"/>
<path d="M19.1381 8.63184V16.6518L10.4232 21.801L1.70338 16.6518V6.34826L10.4232 1.19403L17.121 5.15423L18.1319 4.55721L10.4232 0L0.692383 5.75124V17.2487L10.4232 23L20.154 17.2487V8.03482L19.1381 8.63184Z" fill="url(#paint2_linear_4435_8672)"/>
<path d="M7.98257 16.6567H6.52441V11.6517H11.3849C11.8448 11.6465 12.2841 11.4562 12.608 11.122C12.9318 10.7877 13.114 10.3364 13.1153 9.86566C13.118 9.63289 13.0741 9.40204 12.9862 9.18728C12.8985 8.97252 12.7687 8.77842 12.605 8.61691C12.4465 8.4502 12.2567 8.31799 12.047 8.22822C11.8374 8.13846 11.6122 8.09298 11.3849 8.09453H6.52441V6.57214H11.3898C12.2416 6.57735 13.057 6.92603 13.6594 7.54256C14.2617 8.15908 14.6024 8.99378 14.6074 9.86566C14.6127 10.5331 14.4138 11.1854 14.0388 11.7314C13.6936 12.2537 13.2071 12.6617 12.6389 12.9055C12.0764 13.088 11.489 13.1788 10.8989 13.1741H7.98257V16.6567Z" fill="url(#paint3_linear_4435_8672)"/>
<path d="M14.5741 16.5323H12.8729L11.5605 14.189C12.0797 14.1565 12.5919 14.0493 13.0819 13.8707L14.5741 16.5323Z" fill="url(#paint4_linear_4435_8672)"/>
<path d="M18.1221 6.96517L19.1282 7.53731L20.1344 6.96517V5.75622L19.1282 5.1592L18.1221 5.75622V6.96517Z" fill="url(#paint5_linear_4435_8672)"/>
<defs>
<linearGradient id="paint0_linear_4435_8672" x1="4.46658" y1="14.7568" x2="39.0773" y2="-30.1379" gradientUnits="userSpaceOnUse">
<stop offset="0.1075" stop-color="#C65CFF"/>
<stop offset="0.185" stop-color="#BA6BFF"/>
<stop offset="0.333" stop-color="#9991FF"/>
<stop offset="0.5283" stop-color="#66CCFF"/>
<stop offset="0.8107" stop-color="#42F0DB"/>
<stop offset="0.9726" stop-color="#33FFCC"/>
</linearGradient>
<linearGradient id="paint1_linear_4435_8672" x1="4.46658" y1="14.7568" x2="39.0773" y2="-30.1379" gradientUnits="userSpaceOnUse">
<stop offset="0.1075" stop-color="#C65CFF"/>
<stop offset="0.185" stop-color="#BA6BFF"/>
<stop offset="0.333" stop-color="#9991FF"/>
<stop offset="0.5283" stop-color="#66CCFF"/>
<stop offset="0.8107" stop-color="#42F0DB"/>
<stop offset="0.9726" stop-color="#33FFCC"/>
</linearGradient>
<linearGradient id="paint2_linear_4435_8672" x1="20.1367" y1="5.75757" x2="-0.62824" y2="13.8702" gradientUnits="userSpaceOnUse">
<stop stop-color="#C200FB"/>
<stop offset="0.489658" stop-color="#3772FF"/>
<stop offset="1" stop-color="#5AC4BE"/>
</linearGradient>
<linearGradient id="paint3_linear_4435_8672" x1="20.1361" y1="5.75757" x2="-0.628838" y2="13.8702" gradientUnits="userSpaceOnUse">
<stop stop-color="#C200FB"/>
<stop offset="0.489658" stop-color="#3772FF"/>
<stop offset="1" stop-color="#5AC4BE"/>
</linearGradient>
<linearGradient id="paint4_linear_4435_8672" x1="20.1367" y1="5.75757" x2="-0.628221" y2="13.8701" gradientUnits="userSpaceOnUse">
<stop stop-color="#C200FB"/>
<stop offset="0.489658" stop-color="#3772FF"/>
<stop offset="1" stop-color="#5AC4BE"/>
</linearGradient>
<linearGradient id="paint5_linear_4435_8672" x1="20.1366" y1="5.75757" x2="-0.628381" y2="13.8701" gradientUnits="userSpaceOnUse">
<stop stop-color="#C200FB"/>
<stop offset="0.489658" stop-color="#3772FF"/>
<stop offset="1" stop-color="#5AC4BE"/>
</linearGradient>
</defs>
</svg>
